{"title":"Batman v Superman Dawn of Justice (2016) EXTENDED HDRip XviD-MAX","uid":15126476,"size":2943251502,"categoryP":"video","categoryS":"movies","magnet":"?xt=urn:btih:428a730b8caaff8698bdba466368d93c0fb98637&amp;dn=Batman+v+Superman+Dawn+of+Justice+%282016%29+EXTENDED+HDRip+XviD-MAX&amp;tr=udp%3A%2F%2Ftracker.leechers-paradise.org%3A6969&amp;tr=udp%3A%2F%2Fzer0day.ch%3A1337&amp;tr=udp%3A%2F%2Fopen.demonii.com%3A1337&amp;tr=udp%3A%2F%2Ftracker.coppersurfer.tk%3A6969&amp;tr=udp%3A%2F%2Fexodus.desync.com%3A6969","seeders":20,"leechers":4,"uploader":"extremezone","files":4,"time":1467115813,"description":"http://extraimago.com/images/2016/06/28/batmanc.jpg\r\n\r\nScreens:\r\n \nhttp://extraimago.com/images/2016/06/28/vlcsnap-2016-06-28-13h15m46s121.jpg \nhttp://extraimago.com/images/2016/06/28/vlcsnap-2016-06-28-13h15m05s233.jpg \nhttp://extraimago.com/images/2016/06/28/vlcsnap-2016-06-28-03h44m51s52.jpg \nhttp://extraimago.com/images/2016/06/28/vlcsnap-2016-06-28-03h44m22s31.jpg\r\n\r\nScreenCaps:\r\n \nhttp://extraimago.com/images/2016/06/28/screencaps527c7.jpg\r\n\r\nBatman v Superman Dawn of Justice (2016) EXTENDED HDRip XviD-MAX\r\nFormat                                   : AVI\r\nFormat/Info                              : Audio Video Interleave\r\nFormat profile                           : OpenDML\r\nFormat settings                          : rec\r\nFile size                                : 2.73 GiB\r\nDuration                                 : 3h 2mn\r\nOverall bit rate                         : 2 144 Kbps\r\nWriting application                      : VirtualDubMod 1.5.10.2 (build 2542/release)\r\nWriting library                          : VirtualDubMod build 2542/release\r\nOriginal source form                     : MAX TORRENTZ\r\nCopyright                                : SIGISMUNT\r\n\r\nVideo\r\nID                                       : 0\r\nFormat                                   : MPEG-4 Visual\r\nFormat profile                           : Advanced   \r\nFormat settings, BVOP                    : 1\r\nFormat settings, QPel                    : No\r\nFormat settings, GMC                     : No warppoints\r\nFormat settings, Matrix                  : Default (MPEG)\r\nCodec ID                                 : XVID\r\nCodec ID/Hint                            : XviD\r\nDuration                                 : 3h 2mn\r\nBit rate                                 : 1 755 Kbps\r\nWidth                                    : 720 pixels\r\nHeight                                   : 304 pixels\r\nDisplay aspect ratio                     : 2.35:1\r\nFrame rate                               : 23.976 fps\r\nColor space                              : YUV\r\nChroma subsampling                       : 4:2:0\r\nBit depth                                : 8 bits\r\nScan type                                : Progressive\r\nCompression mode                         : Lossy\r\nBits/(Pixel*Frame)                       : 0.334\r\nStream size                              : 2.24 GiB (82%)\r\nWriting library                          : XviD 1.2.1 (UTC 2008-12-04)\r\n\r\nAudio\r\nID                                       : 1\r\nFormat                                   : AC-3\r\nFormat/Info                              : Audio Coding 3\r\nMode extension                           : CM (complete main)\r\nFormat settings, Endianness              : Big\r\nCodec ID                                 : 2000\r\nDuration                                 : 3h 2mn\r\nBit rate mode                            : Constant\r\nBit rate                                 : 384 Kbps\r\nChannel(s)                               : 6 channels\r\nChannel positions                        : Front: L C R, Side: L R, LFE\r\nSampling rate                            : 48.0 KHz\r\nBit depth                                : 16 bits\r\nCompression mode                         : Lossy\r\nStream size                              : 501 MiB (18%)\r\nAlignment                                : Aligned on interleaves\r\nInterleave, duration                     : 64 ms (1.53 video frames)\r\nInterleave, preload duration             : 192 ms\r\n\r\nSource: WEBDL HD EUE-EXTENDED ULTIMATE EDITION\r\n(clean encode/source, perfect a/v/sync quality,sample included)\r\nThis torrent is not seedbox supported,please seed it to the MAX","torrent":{"xt":"urn:btih:428a730b8caaff8698bdba466368d93c0fb98637","amp;dn":"Batman+v+Superman+Dawn+of+Justice+%282016%29+EXTENDED+HDRip+XviD-MAX","amp;tr":["udp%3A%2F%2Ftracker.leechers-paradise.org%3A6969","udp%3A%2F%2Fzer0day.ch%3A1337","udp%3A%2F%2Fopen.demonii.com%3A1337","udp%3A%2F%2Ftracker.coppersurfer.tk%3A6969","udp%3A%2F%2Fexodus.desync.com%3A6969"],"infoHash":"428a730b8caaff8698bdba466368d93c0fb98637","infoHashBuffer":{"type":"Buffer","data":[66,138,115,11,140,170,255,134,152,189,186,70,99,104,217,60,15,185,134,55]},"announce":[],"urlList":[]}}